<svg xmlns="http://www.w3.org/2000/svg" version="1.1" xmlns:xlink="http://www.w3.org/1999/xlink" xmlns:svgjs="http://svgjs.dev/svgjs" width="2000" height="2250" viewBox="0 0 2000 2250"><g transform="matrix(1,0,0,1,0,0)"><svg viewBox="0 0 320 360" data-background-color="#ffffff" preserveAspectRatio="xMidYMid meet" height="2250" width="2000" xmlns="http://www.w3.org/2000/svg" xmlns:xlink="http://www.w3.org/1999/xlink"><g id="tight-bounds" transform="matrix(1,0,0,1,0,0)"><svg viewBox="0 0 320 360" height="360" width="320"><g><svg></svg></g><g><svg viewBox="0 0 320 360" height="360" width="320"><g><path d="M165.217 303.356c-1.404-1.755-2.809-0.702-2.808-1.755-8.426 2.106-24.223-3.511-30.894-2.809 1.404-2.106-2.106-1.755-2.106-3.159-1.404 2.106-2.809 0-4.915 0.702-2.106-5.266-10.532-1.404-11.585-8.075-4.915 0-6.67-2.809-11.586-5.617 0.351-0.351 0.702-0.351 1.054-0.702-2.457-0.351-2.457-1.755-4.564-1.755l0.702-1.405c-3.862-0.702-5.266-6.67-10.883-8.776-1.755-0.351-5.617-6.319-7.723-7.724-1.053-0.702-2.809-0.702-0.352-1.053-0.351-0.351-0.351-1.053 0-1.404-2.457-0.702-2.809-2.809-5.968-3.862-0.351-1.053 0.702-1.755 0-2.457-0.702-0.351-1.755 0.351-2.457 0-0.351 6.319 6.67 7.021 8.777 12.287-0.702-0.702-1.755-2.809-2.458-1.404-0.351 1.053 2.809 4.915 2.809 2.808-1.053 0.702-1.404-1.053-0.703-1.404 1.053 1.755 3.16 1.404 3.16 2.809-1.053 1.053-2.457-1.053-2.106 0.702 3.16 1.755 2.809 3.511 4.563 5.968-1.404-1.755-1.755 1.404-3.159 0-0.351-5.266-6.319-4.213-6.319-9.479-0.702-1.755-1.404-0.351-2.458-1.053 1.404-1.404-4.213-6.319-4.213-4.564-1.755-2.106-0.702-2.809-1.053-4.213-1.404-0.351-0.351 1.404-1.404 0.351 1.404-2.457-1.755-5.617-3.862-8.074l1.405-0.702c-2.457-1.404-2.809-4.213-4.564-7.373-2.106 3.16 4.213 10.181 3.159 11.585 0 0.351 2.457 3.16 3.16 4.564 2.809 4.915 4.915 10.883 8.777 13.692-0.702-0.351-0.351-2.457 0.702-1.404 0 1.053-0.702 2.106-0.702 3.159 2.106 2.106 3.862 3.862 5.968 5.968-4.564-2.809-9.128-5.617-12.288-9.83 1.755-0.351 3.511 2.809 4.915 2.458-3.511-2.809-2.457-3.862-3.861-7.372-1.404-1.053 0.351 1.404-1.054 1.755-4.564-4.213-8.075-6.67-10.181-10.532 0.351-0.351 0.702-0.702 0.703-1.404-0.351-0.351-0.351-0.351-0.703-0.702 2.106 2.106 2.809 3.862 5.266 4.212-1.053-1.053 0-1.404-1.404-2.457-0.702-1.404-1.755 0.702-2.457-0.351 0.702-1.053 0-2.457 0-3.511-0.702 0-1.404 0-1.756-1.053-0.702-0.351-1.053 0-1.404 0.702-0.351-0.351-0.351-1.053-0.702-1.404v-0.351c-0.351-0.351-0.702-1.053-1.053-1.405-2.809-7.372-4.564-17.202-8.426-23.521 1.053-4.213-0.702-12.638-1.755-14.745 1.053-1.755 0.351-9.83-0.351-11.234-1.755 0.702 0.351 4.564-1.404 5.617-1.755-7.723 1.053-16.5 0.351-23.521 0.702 0 1.404 0 1.404-0.351-1.053-1.053 0.702-3.16 0.351-5.617 1.404-3.16-3.16 4.564-3.16 7.723-0.351 0.702-1.755 0-1.404 1.756 0 2.457 0.702 7.372-0.702 10.883-0.702 0-0.702-0.702-1.404-0.351-0.351 1.755-0.702 3.862-1.053 5.617-0.351-0.702-0.702-1.755-0.703-2.107-1.755-8.777 0-18.958-0.702-26.33 1.404 0 1.404-2.106 2.458-2.808-0.351 2.809-1.053 6.319 0.702 7.021 1.404-13.692 4.213-28.787 10.532-43.532 4.564-10.883 11.234-21.766 19.308-30.543 0.702 1.053-0.351 3.511 0 4.564 7.021-7.372 11.585-16.149 19.309-21.064 0.351 1.755-3.16 3.16-3.16 4.564 3.16-3.16 4.213-2.106 7.724-3.159 1.053-1.404-1.404 0-1.756-1.405 2.106-1.404 3.511-3.16 4.915-4.212 0 0.351-0.351 0.351-0.351 0.702 3.862-1.053 4.213-3.16 7.022-3.862-0.351-0.351-1.053-0.702-2.107-0.351 0.702-0.351 1.755-1.053 2.809-1.404-0.351 0-0.351 0.351-0.702 0.351 2.106-1.053 0.351 0.351 0.351 1.053 0.351 0 0.702-0.351 0.702-0.351-2.106 1.404-3.511 2.106-4.213 4.564 1.053-0.702 1.404 0 2.809-1.054 1.404-0.702-0.351-1.755 0.702-2.457 1.053 0.702 2.457 0.351 3.51 0.351 0-0.702 0.351-1.404 1.054-1.755 0.351-0.702 0-1.053-0.352-1.053 0.351-0.351 0.702-0.351 1.405-0.703 0 0 0.351 0 0.351 0.351 5.968-2.809 12.638-5.266 18.957-7.372 3.862-0.351 8.777-0.351 10.883-2.808-0.702 0-1.404 0.351-1.755 0 0.351 0 1.053-0.351 1.404-0.351 0.702 0.702 1.755 0 0.702 1.404 0.351 0 0.351 0 0.703-0.351 0 0.351 0 0.351 0.351 0.702 0.351 0 0.702-0.351 1.053-1.053 0.351 0 0.702 0 1.053-0.351l-0.351 0.351c2.809-0.702 5.266-0.351 9.128-1.054 0-0.351 0-0.702 0-1.053 0.702 0 1.053-0.351 1.755-0.351v0.351c1.404-0.702 2.809 0.702 2.808 0 0.351 0 0.351 0 0.703 0 0 0.702-0.351 1.053-0.351 1.405 1.755 0 2.809 0 3.51-1.054-0.351-0.351-0.702-0.351-1.053-0.351 0.702 0 1.404-0.351 2.106-0.702 1.053 0.351 1.404 0.702 1.405 2.107 1.755-3.16 7.372 0.702 9.829 0 1.053 0 0.702-1.404 1.405-2.107 0.351 0 0.702 0 1.053 0 1.755 1.404 4.213 2.809 7.372 3.16-2.809-0.702 0.351-1.053 0.702-1.405-0.702 0-0.702-0.351-0.702-0.702 1.053 0 2.106 0.351 3.16 0.351 0 0.702 0.351 1.053 1.053 1.054 0.702 0 0.702-0.351 0.702-1.054 1.053 0 1.755 0 2.809 0.351-0.351 1.404 1.755 1.755 2.457 2.809-2.809-0.702-5.968-1.755-7.021 0 11.234 2.457 23.521 5.968 35.457 11.936 0 0 0 0 0 0.351h0.352c2.106 1.053 4.213 2.106 6.319 3.16 1.404 0.702 2.457 1.404 3.861 2.457 0 0.351 0 0.702 0.703 0.702h0.351c1.404 1.053 2.809 1.755 4.212 2.809 1.404 2.106 2.809 4.915 5.266 4.213 5.266 8.075 10.883 11.234 15.447 19.659 0.351-1.404 1.404 3.16 3.16 3.511-2.809-0.351 1.755 1.755-1.053 1.404 2.457 2.457 3.16 3.511 3.51 6.319-0.702-1.404-1.053-1.755-1.404-0.351-0.351 2.106 2.457-0.351 3.511 1.756-2.106 0-1.404 1.404-1.054 3.159 1.053-1.053 0.702-2.106 1.756-1.755 1.404 1.404-0.702 1.755-0.351 2.809 1.053-1.404 1.404-0.702 2.808 0-1.755 0.351 1.053 2.809-1.053 1.755 1.404 1.755 1.755 2.809 1.053 4.564-1.404-2.106-0.351-3.511-2.457-3.16 4.213 3.511 2.106 11.585 7.021 12.287-3.16 0.702 0 2.106-1.755 2.458 2.106 0.702 1.053 3.511 3.51 4.213-0.351 1.755-1.053 2.809-1.404 4.563 1.053 1.404 1.404 4.213 3.16 4.564-1.053 1.053-0.351 3.862-1.404 4.915 1.404-0.702 2.106-0.702 3.159 0.702-1.755 1.404-0.351 2.809-1.404 3.16 3.16 8.075-0.702 24.575 1.053 30.894-2.106-1.053-1.404 2.457-2.808 2.457 2.457 1.053 0.351 2.809 1.404 4.564-4.915 2.809 0 10.532-6.67 12.287 0.702 4.915-2.106 7.021-4.213 12.288-0.351-0.351-0.351-0.702-0.702-1.054-0.351 2.457-1.755 2.809-1.054 4.915l-1.404-0.702c0 3.862-5.968 5.968-7.372 11.936-0.351 1.755-5.617 6.319-7.022 8.777-0.702 1.053-0.351 2.809-1.053 0.351-0.351 0.351-1.053 0.351-1.404 0.351-0.351 2.457-2.457 3.16-3.16 6.319-0.702 0.351-1.755-0.702-2.457 0.351 0 0.702 0.702 1.755 0.351 2.458 6.319-0.351 6.319-7.723 11.234-10.181-0.351 1.053-2.457 2.106-1.053 2.808 1.053 0 4.213-3.511 2.457-3.159 1.053 0.702-1.053 1.404-1.404 1.053 1.755-1.404 1.053-3.16 2.458-3.511 1.053 0.702-1.053 2.457 1.053 2.107 1.404-3.16 3.16-3.511 5.266-5.266-1.404 1.404 1.755 1.755 0.351 3.159-5.266 1.053-3.511 7.021-8.777 7.724-1.404 1.053-0.351 1.404-0.702 2.457-1.755-1.053-5.617 4.915-4.213 4.564-1.755 1.755-2.809 1.053-4.212 1.404-0.351 1.404 1.404 0.351 0.702 1.405-2.457-1.053-5.617 2.457-7.724 4.915l-1.053-1.054c-1.053 2.809-3.862 3.16-7.021 5.266 3.511 1.755 9.479-5.617 11.234-4.564 0.351 0 3.16-2.809 4.213-3.861 4.564-3.511 10.181-6.319 12.287-10.181-0.351 0.702-2.457 0.702-1.404-0.351 1.053-0.351 2.106 0.351 3.159 0.351 5.617-7.723 12.638-14.043 17.905-23.17 0.351-0.351 0.702-1.053 1.053-1.756-0.702 2.106-1.755 3.862-2.458 5.968-5.617 3.862-7.723 15.096-14.393 16.851 0.351 3.862-3.16 4.915-4.915 9.479-1.053 1.404-1.755-1.053-2.809 0.702 1.053 4.915-8.777 4.564-8.425 9.128-0.702 0.351-1.755 0.702-2.458 1.404h-0.351c-0.351 0.351-0.351 0.351-0.702 0.702-1.755 1.053-3.16 2.106-4.564 3.16-4.915 2.809-11.585 4.915-16.851 7.723v-0.351c-1.404 0.702-3.16 0.351-2.809 1.756-1.053 0.702-2.106 1.404-3.159 2.106-0.351 0-0.351 0-0.702 0 0 0-0.351-0.351-0.702-0.351-0.702 0-0.702 0-1.054 0.351-4.564 0.351-10.532 2.457-12.287 3.862-1.755-1.053-9.83 0.702-11.234 1.404 0.702 1.053 2.809 0 4.564 0-1.053 0.351-2.106 0.702-2.458 1.404-0.351 0-0.351 0-0.702 0-0.351-1.053-1.404 0-1.755-0.351h0.351c-0.351-1.404-1.404-2.106-3.16-1.755 0 0.702 0 1.053-0.351 1.755 0.702 0 2.809-1.053 2.809 0-0.351 0-0.351 0.351 0 0.351-0.702 0.702-1.755 0.702-2.458 1.054-1.404 0-3.16 0-4.563 0-0.351-0.351-0.702-0.351-1.405-0.703-0.351 0.351-1.053 0.351-1.404 0.703-2.106 0-4.564 0.351-6.319 0.702 0-0.702 0-1.404-0.702-1.405-1.053 1.404-3.16-0.351-5.617 0.352-2.457-0.702 1.404 1.053 4.915 1.755-0.351 0.351-0.702 0.702-1.756 1.053M116.068 308.271c-4.915-4.564-15.096-6.67-16.851-10.181-2.809-0.351-7.021-5.617-10.532-6.319 1.755 0 0.351-1.053 0-1.755-0.702 0.702-1.404 1.053-2.106 1.053 0-2.809-2.809-4.564-5.266-6.319 1.755 1.053 3.16 1.755 5.266 2.106 0-0.702 0-1.404 0.702-1.404 2.457 2.457 5.266 4.915 8.425 7.372 4.213 3.862 25.979 13.692 29.841 15.447 0 0-0.702 1.404-0.351 1.404 1.755 1.053 3.16-1.053 3.511 1.404-5.617 0.702-7.723-3.16-12.639-2.808M277.909 226.824v0.351 0c-0.351 0 0-0.351 0-0.351M136.079 64.281c-0.351 0.351-0.702 0.351-0.702 0.351 0-0.351 0.351-0.351 0.702-0.351M129.409 66.036c0 0.351 0 0.351 0 0 0 0.351 0 0.351 0 0 0 0.351 0 0 0 0M106.238 73.408v0c0.351-0.351 0.351-0.351 0.703-0.351-0.351 0-0.702 0.351-0.703 0.351M162.409 61.823c-0.702 0-1.053 0-1.404-0.351 0.351 0 0.702 0 1.053 0h0.351c0 0 0 0 0 0.351M168.728 62.525c-0.351-0.351-1.404-0.702-2.457-0.702 0-0.351 0.351-0.702 0.351-0.702 0.351 0 0.702 0 1.053 0 0 0 0.351 0 0.351 0.351 0 0 0 0 0-0.351 0.351 0 0.351 0 0.702 0 0.351 0.702 0.702 1.053 0 1.404M180.313 63.579c-1.755 0.351-2.809-0.351-4.564-1.405 1.053 0 2.457 0.351 3.511 0.702 0.351 0 0.702 0.351 1.053 0.703M305.292 113.43c-0.702 0.351-1.053 0.351-1.755-1.053-5.617-11.936-15.798-29.138-30.543-43.532-14.394-14.745-33.702-26.681-51.255-33.001 1.053 0.351 2.457 1.053 1.755 1.756-15.447-5.968-30.192-9.479-44.234-10.883-37.915-5.968-77.585 2.106-108.128 21.766 0.351 0.702 0.351 1.053-0.702 1.755-11.234 7.021-27.032 19.309-39.671 35.458-12.638 16.149-22.468 36.511-26.681 54.766 0.351-1.053 0.702-2.809 1.405-2.107-9.128 36.16-6.67 67.053 5.968 93.735 0.702-0.702-1.755-4.213 0.351-3.862 1.404 3.862 3.16 8.075 5.266 11.936 2.457 5.617 5.266 12.989 9.128 14.745-9.83-19.309-16.5-41.426-17.203-61.085 1.404 2.809 1.053 8.777 3.16 11.234 0.702-13.34-2.457-31.245 2.106-43.883-1.053 6.67-1.755 15.798-1.053 24.925 0 6.67 3.16 25.277 5.266 27.032-0.351-0.351-0.351-2.106 0-2.106 1.053 2.106-1.404 3.16 0.351 3.511 0-0.702 0.351-0.702 0.702-0.703 3.511 7.723 8.075 19.66 11.585 25.628 4.213 7.723 9.83 14.745 16.149 21.064 0 0.351 0.351 0.351 0.352 0.702 0.702 1.755 3.16 3.862 3.861 5.266 0.351 0.702-0.351 1.755 0 2.458 5.266 9.83 12.989 19.66 22.468 27.383 5.968 7.021 15.447 14.394 27.032 20.713 11.234 5.968 24.223 10.883 36.16 13.691 8.426 2.106 18.606 2.457 24.926 3.862 8.426 1.755 23.17-0.702 30.542-2.107 44.234-6.67 88.117-36.862 110.235-80.393 22.819-43.883 22.117-97.596 2.457-138.671" fill="#ba3b0a" fill-rule="nonzero" stroke="none" stroke-width="1" stroke-linecap="butt" stroke-linejoin="miter" stroke-miterlimit="10" stroke-dasharray="" stroke-dashoffset="0" font-family="none" font-weight="none" font-size="none" text-anchor="none" style="mix-blend-mode: normal" data-fill-palette-color="tertiary"></path></g><g transform="matrix(1,0,0,1,80,153.73560065825563)"><svg viewBox="0 0 160 52.52879868348875" height="52.52879868348875" width="160"><g><svg viewBox="0 0 160 52.52879868348875" height="52.52879868348875" width="160"><g><svg viewBox="0 0 160 52.52879868348875" height="52.52879868348875" width="160"><g id="textblocktransform"><svg viewBox="0 0 160 52.52879868348875" height="52.52879868348875" width="160" id="textblock"><g><svg viewBox="0 0 160 52.52879868348875" height="52.52879868348875" width="160"><g><svg viewBox="0 0 160 52.52879868348875" height="52.52879868348875" width="160"><g transform="matrix(1,0,0,1,0,0)"><svg width="160" viewBox="7.1 -41.5 182.28 59.85" height="52.52879868348875" data-palette-color="#ba3b0a"><path d="M7.1-9.8L7.1-9.8Q7.1-13.3 7.93-16.68 8.75-20.05 10.25-23.08 11.75-26.1 13.83-28.63 15.9-31.15 18.38-33 20.85-34.85 23.65-35.88 26.45-36.9 29.4-36.9L29.4-36.9Q32.85-36.9 34.77-35.45 36.7-34 36.7-31.4L36.7-31.4Q36.7-30.4 36.43-29.35 36.15-28.3 35.63-27.28 35.1-26.25 34.4-25.3 33.7-24.35 32.85-23.65L32.85-23.65Q31.55-23.85 30.6-24.83 29.65-25.8 29.4-27.1L29.4-27.1Q31.15-28.55 32.18-30.13 33.2-31.7 33.2-33L33.2-33Q33.2-35.2 30.45-35.2L30.45-35.2Q29.3-35.2 28.08-34.73 26.85-34.25 25.6-33.4 24.35-32.55 23.18-31.35 22-30.15 21-28.7L21-28.7Q14.05-18.7 14.05-8.25L14.05-8.25Q14.05-4.55 15.2-2.3 16.35-0.05 18.25 0.35L18.25 0.35Q20.4-0.15 23.7-2.4 27-4.65 30.9-8.25L30.9-8.25Q31.4-7.75 31.5-7.2L31.5-7.2Q30.05-5.3 28.5-3.55 26.95-1.8 25.43-0.35 23.9 1.1 22.43 2.2 20.95 3.3 19.7 3.9L19.7 3.9Q13.5 3.8 10.3 0.35 7.1-3.1 7.1-9.8ZM34.8-3.35L34.8-3.35Q34.8-3.8 34.87-4.48 34.95-5.15 35.15-6.28 35.35-7.4 35.67-9 36-10.6 36.5-12.85L36.5-12.85Q36.6-13.35 36.95-14.45 37.3-15.55 37.87-16.78 38.45-18 39.27-19.15 40.1-20.3 41.25-20.85L41.25-20.85Q42.1-20.65 43.5-19.83 44.9-19 45.9-17.55L45.9-17.55Q44.75-16.25 43.97-14.95 43.2-13.65 42.57-12.25 41.95-10.85 41.42-9.35 40.9-7.85 40.25-6.2L40.25-6.2Q39.7-4.8 39.25-3.33 38.8-1.85 38.75-0.75L38.75-0.75Q38.75 0.15 38.72 0.53 38.7 0.9 38.45 0.9L38.45 0.9Q38.25 0.9 37.65 0.65 37.05 0.4 36.42-0.13 35.8-0.65 35.3-1.45 34.8-2.25 34.8-3.35ZM44.35-25.05L44.35-25.05Q44.35-25.35 44.5-25.95L44.5-25.95Q44.25-26.2 44.07-26.7 43.9-27.2 43.9-27.6L43.9-27.6Q43.9-28.05 44.02-28.83 44.15-29.6 44.35-30.5 44.55-31.4 44.85-32.38 45.15-33.35 45.45-34.15L45.45-34.15Q46.05-34.15 46.92-33.83 47.8-33.5 48.7-32.98 49.6-32.45 50.35-31.83 51.1-31.2 51.5-30.65L51.5-30.65Q50.95-30.1 50.05-29.13 49.15-28.15 48.3-27.08 47.45-26 46.75-25.05 46.05-24.1 45.85-23.7L45.85-23.7Q45.25-23.8 44.8-24.23 44.35-24.65 44.35-25.05ZM54.65-24.25L54.65-24.25Q55.95-23.85 57.1-22.48 58.25-21.1 58.8-19.45L58.8-19.45Q58.25-18.1 57.1-16.2 55.95-14.3 54.8-12.33 53.65-10.35 52.72-8.58 51.8-6.8 51.65-5.65L51.65-5.65Q52.45-6.5 53.42-7.63 54.4-8.75 55.32-9.88 56.25-11 57.05-11.93 57.85-12.85 58.3-13.3L58.3-13.3Q59.25-14.3 60.55-15.63 61.85-16.95 63.27-18.13 64.7-19.3 66.15-20.13 67.6-20.95 68.8-20.95L68.8-20.95Q70.1-20.95 70.97-20.08 71.85-19.2 72.35-18.25L72.35-18.25Q72.35-18.15 71.97-17.98 71.6-17.8 70.9-17L70.9-17Q70.2-16.1 69.32-14.53 68.45-12.95 67.62-11.13 66.8-9.3 66.25-7.4 65.7-5.5 65.7-3.95L65.7-3.95Q65.7-2.7 66.02-2.35 66.35-2 66.95-2L66.95-2Q67.5-2 68.1-2.25 68.7-2.5 69.05-2.5L69.05-2.5Q69.25-2.4 69.37-2.08 69.5-1.75 69.5-1.5L69.5-1.5Q69.1-1.15 68.55-0.8 68-0.45 67.4-0.15 66.8 0.15 66.22 0.35 65.65 0.55 65.2 0.55L65.2 0.55Q63.75 0.55 62.82 0.13 61.9-0.3 61.37-1 60.85-1.7 60.65-2.68 60.45-3.65 60.45-4.75L60.45-4.75Q60.45-5.35 60.55-6.1 60.65-6.85 60.95-7.88 61.25-8.9 61.8-10.33 62.35-11.75 63.2-13.75L63.2-13.75Q63.1-13.75 61.85-13.05 60.6-12.35 59.15-10.9L59.15-10.9Q56.8-8.65 54.92-6.45 53.05-4.25 51.1-1.55L51.1-1.55Q50 0 49.17 1.07 48.35 2.15 47.75 2.5L47.75 2.5Q46.7 1.9 46.2 0.83 45.7-0.25 45.45-1.4L45.45-1.4Q45.45-2.35 45.72-3.8 46-5.25 46.47-7.03 46.95-8.8 47.65-10.75 48.35-12.7 49.2-14.65L49.2-14.65Q51.1-19.05 52.67-21.55 54.25-24.05 54.65-24.25ZM91.44-20.7L91.44-20.7Q91.24-17.6 90.34-15.38 89.44-13.15 87.77-11.48 86.09-9.8 83.69-8.45 81.29-7.1 78.09-5.85L78.09-5.85Q78.09-5.55 78.07-5.23 78.04-4.9 78.04-4.55L78.04-4.55Q78.04-3.9 78.14-3.2 78.24-2.5 78.49-1.9 78.74-1.3 79.19-0.93 79.64-0.55 80.34-0.55L80.34-0.55Q81.69-0.55 82.99-1.15 84.29-1.75 85.47-2.63 86.64-3.5 87.67-4.53 88.69-5.55 89.49-6.4L89.49-6.4Q89.99-5.95 90.34-5.55L90.34-5.55Q88.09-2.55 85.42-0.58 82.74 1.4 80.34 1.95L80.34 1.95Q76.89 1.55 74.97-0.58 73.04-2.7 73.04-5.7L73.04-5.7Q73.04-7.75 73.62-9.88 74.19-12 75.22-13.98 76.24-15.95 77.62-17.7 78.99-19.45 80.57-20.75 82.14-22.05 83.82-22.8 85.49-23.55 87.14-23.55L87.14-23.55Q89.44-23.25 91.44-20.7ZM87.99-19.05L87.99-19.05Q86.64-18.85 85.19-17.95 83.74-17.05 82.47-15.55 81.19-14.05 80.14-12.05 79.09-10.05 78.49-7.75L78.49-7.75Q82.49-9.75 85.14-12.68 87.79-15.6 87.99-19.05ZM110.99-19.9L110.99-19.9Q110.94-18.95 110.67-17.93 110.39-16.9 109.99-16.07 109.59-15.25 109.14-14.7 108.69-14.15 108.29-14.15L108.29-14.15Q107.74-14.2 107.64-14.9L107.64-14.9Q107.64-15.05 107.77-15.38 107.89-15.7 108.04-16.1 108.19-16.5 108.32-16.9 108.44-17.3 108.44-17.6L108.44-17.6Q108.44-18.3 108.12-18.78 107.79-19.25 107.24-19.25L107.24-19.25Q105.24-19.25 104.19-16.75 103.14-14.25 103.14-9.4L103.14-9.4Q103.14-8.9 103.19-8.8L103.19-8.8Q104.24-8.85 105.07-8.88 105.89-8.9 106.69-8.9L106.69-8.9Q106.74-8.8 106.74-8.5L106.74-8.5Q106.74-8.05 106.54-7.85L106.54-7.85Q105.39-7.6 104.72-7.43 104.04-7.25 103.69-7.1 103.34-6.95 103.27-6.78 103.19-6.6 103.19-6.3L103.19-6.3Q103.19-5.9 103.22-5.5 103.24-5.1 103.24-4.5L103.24-4.5Q103.24-0.3 100.97 2.25 98.69 4.8 94.64 5.2L94.64 5.2Q93.94 5.15 93.19 4.8 92.44 4.45 91.77 3.9 91.09 3.35 90.59 2.68 90.09 2 89.89 1.3L89.89 1.3Q89.89-0.6 90.69-2.33 91.49-4.05 92.87-5.38 94.24-6.7 96.12-7.53 97.99-8.35 100.19-8.5L100.19-8.5Q100.19-9.75 99.94-10.95 99.69-12.15 99.42-13.28 99.14-14.4 98.89-15.48 98.64-16.55 98.64-17.6L98.64-17.6Q98.64-18.95 99.19-20.28 99.74-21.6 100.64-22.73 101.54-23.85 102.74-24.65 103.94-25.45 105.24-25.75L105.24-25.75Q105.79-25.6 106.72-24.88 107.64-24.15 108.54-23.25 109.44-22.35 110.14-21.43 110.84-20.5 110.99-19.9ZM94.49 2.9L94.49 2.9Q95.69 2.4 96.77 1.45 97.84 0.5 98.64-0.7 99.44-1.9 99.92-3.25 100.39-4.6 100.39-5.9L100.39-5.9Q99.39-5.75 98.19-4.98 96.99-4.2 95.94-3.13 94.89-2.05 94.19-0.9 93.49 0.25 93.49 1.1L93.49 1.1Q93.49 2.2 94.49 2.9ZM111.09-3.35L111.09-3.35Q111.09-3.8 111.16-4.48 111.24-5.15 111.44-6.28 111.64-7.4 111.96-9 112.29-10.6 112.79-12.85L112.79-12.85Q112.89-13.35 113.24-14.45 113.59-15.55 114.16-16.78 114.74-18 115.56-19.15 116.39-20.3 117.54-20.85L117.54-20.85Q118.39-20.65 119.79-19.83 121.19-19 122.19-17.55L122.19-17.55Q121.04-16.25 120.26-14.95 119.49-13.65 118.86-12.25 118.24-10.85 117.71-9.35 117.19-7.85 116.54-6.2L116.54-6.2Q115.99-4.8 115.54-3.33 115.09-1.85 115.04-0.75L115.04-0.75Q115.04 0.15 115.01 0.53 114.99 0.9 114.74 0.9L114.74 0.9Q114.54 0.9 113.94 0.65 113.34 0.4 112.71-0.13 112.09-0.65 111.59-1.45 111.09-2.25 111.09-3.35ZM120.64-25.05L120.64-25.05Q120.64-25.35 120.79-25.95L120.79-25.95Q120.54-26.2 120.36-26.7 120.19-27.2 120.19-27.6L120.19-27.6Q120.19-28.05 120.31-28.83 120.44-29.6 120.64-30.5 120.84-31.4 121.14-32.38 121.44-33.35 121.74-34.15L121.74-34.15Q122.34-34.15 123.21-33.83 124.09-33.5 124.99-32.98 125.89-32.45 126.64-31.83 127.39-31.2 127.79-30.65L127.79-30.65Q127.24-30.1 126.34-29.13 125.44-28.15 124.59-27.08 123.74-26 123.04-25.05 122.34-24.1 122.14-23.7L122.14-23.7Q121.54-23.8 121.09-24.23 120.64-24.65 120.64-25.05ZM112.74 14.9L112.74 14.9Q112.74 14.6 112.94 14.35 113.14 14.1 113.39 13.85L113.39 13.85Q113.99 14.4 114.41 14.7 114.84 15 115.21 15.2 115.59 15.4 115.99 15.45 116.39 15.5 116.94 15.5L116.94 15.5Q119.54 15.5 121.89 14.13 124.24 12.75 126.31 10.15 128.39 7.55 130.09 3.8 131.79 0.05 133.09-4.7L133.09-4.7Q132.49-4.1 131.61-3.38 130.74-2.65 129.79-2 128.84-1.35 127.91-0.8 126.99-0.25 126.34 0L126.34 0Q125.49-0.15 124.76-0.73 124.04-1.3 123.49-2.15 122.94-3 122.64-4.08 122.34-5.15 122.34-6.35L122.34-6.35Q122.34-8.3 123.06-10.35 123.79-12.4 124.99-14.38 126.19-16.35 127.81-18.1 129.44-19.85 131.26-21.15 133.09-22.45 134.96-23.23 136.84-24 138.64-24L138.64-24Q140.39-24 141.26-23.28 142.14-22.55 142.54-20.8L142.54-20.8Q141.99-21.1 141.14-21.1L141.14-21.1Q139.94-21.1 138.36-20.15 136.79-19.2 135.16-17.68 133.54-16.15 131.94-14.18 130.34-12.2 129.11-10.15 127.89-8.1 127.11-6.15 126.34-4.2 126.34-2.65L126.34-2.65Q126.34-2.3 126.39-2.23 126.44-2.15 126.54-2.15L126.54-2.15Q126.99-2.15 127.76-2.65 128.54-3.15 129.51-3.93 130.49-4.7 131.54-5.73 132.59-6.75 133.54-7.8L133.54-7.8Q135.69-10.2 137.46-13.18 139.24-16.15 140.29-18.95L140.29-18.95Q141.64-18.85 142.69-18.5 143.74-18.15 144.14-17.75L144.14-17.75Q142.44-13.85 141.41-11.2 140.39-8.55 139.64-6.5L139.64-6.5Q138.29-2.9 137.11 0.08 135.94 3.05 134.71 5.58 133.49 8.1 132.06 10.28 130.64 12.45 128.84 14.45L128.84 14.45Q127.99 15.4 126.91 16.13 125.84 16.85 124.71 17.35 123.59 17.85 122.51 18.1 121.44 18.35 120.54 18.35L120.54 18.35Q119.34 18.35 118.09 18.07 116.84 17.8 115.76 17.32 114.69 16.85 113.89 16.23 113.09 15.6 112.74 14.9ZM145.28-0.85L145.28-0.85Q145.28-2.6 145.63-4.98 145.98-7.35 146.66-10.05 147.33-12.75 148.26-15.7 149.18-18.65 150.33-21.6L150.33-21.6Q151.33-24.25 152.66-26.95 153.98-29.65 155.53-32.25 157.08-34.85 158.76-37.2 160.43-39.55 162.13-41.5L162.13-41.5Q162.93-41.5 163.86-41.3 164.78-41.1 165.66-40.78 166.53-40.45 167.26-40 167.98-39.55 168.43-39.1L168.43-39.1Q164.68-35.25 161.68-31.33 158.68-27.4 156.93-23.95L156.93-23.95Q155.98-22.05 155.21-20.4 154.43-18.75 153.78-17.13 153.13-15.5 152.61-13.88 152.08-12.25 151.63-10.45L151.63-10.45Q161.23-22.7 165.88-22.7L165.88-22.7Q167.18-22.7 168.68-21.85 170.18-21 171.33-19.55L171.33-19.55Q169.78-17.85 168.13-15.45 166.48-13.05 165.11-10.63 163.73-8.2 162.86-6.13 161.98-4.05 161.98-3.05L161.98-3.05Q161.98-2.55 162.13-2.38 162.28-2.2 162.78-2.2L162.78-2.2Q163.53-2.2 163.98-2.4 164.43-2.6 164.53-2.6L164.53-2.6Q164.78-2.2 164.83-2.05 164.88-1.9 164.88-1.8L164.88-1.8Q164.88-1.6 164.28-1.23 163.68-0.85 162.86-0.48 162.03-0.1 161.23 0.2 160.43 0.5 160.03 0.5L160.03 0.5Q159.53 0.5 159.03 0.23 158.53-0.05 158.16-0.5 157.78-0.95 157.56-1.5 157.33-2.05 157.33-2.65L157.33-2.65Q157.33-3.4 157.76-4.88 158.18-6.35 158.93-8.33 159.68-10.3 160.73-12.65 161.78-15 162.98-17.45L162.98-17.45Q162.98-17.65 162.78-17.65L162.78-17.65Q162.63-17.65 162.01-17.25 161.38-16.85 160.83-16.45L160.83-16.45Q159.03-15.1 157.21-13.13 155.38-11.15 153.66-8.8 151.93-6.45 150.41-3.83 148.88-1.2 147.78 1.45L147.78 1.45Q147.63 1.8 147.33 2.1 147.03 2.4 146.83 2.4L146.83 2.4Q146.68 2.4 146.41 2.05 146.13 1.7 145.91 1.18 145.68 0.65 145.48 0.1 145.28-0.45 145.28-0.85ZM176.98-19.15L174.13-19.15Q173.88-19.45 173.68-20.43 173.48-21.4 173.48-22.1L173.48-22.1Q174.78-22 175.98-21.93 177.18-21.85 178.18-21.8L178.18-21.8Q178.93-23.3 179.81-24.78 180.68-26.25 181.51-27.48 182.33-28.7 183.06-29.55 183.78-30.4 184.18-30.65L184.18-30.65Q184.68-30.65 185.46-30.48 186.23-30.3 187.03-30.03 187.83-29.75 188.48-29.45 189.13-29.15 189.38-28.85L189.38-28.85Q187.88-26.95 186.81-25.33 185.73-23.7 184.48-21.6L184.48-21.6Q185.48-21.6 186.51-21.65 187.53-21.7 188.58-21.8L188.58-21.8Q188.83-21.55 188.98-21.18 189.13-20.8 189.13-20.4L189.13-20.4Q186.68-19.5 183.18-19.4L183.18-19.4Q181.93-17 180.96-14.63 179.98-12.25 179.31-10.05 178.63-7.85 178.26-5.9 177.88-3.95 177.88-2.4L177.88-2.4Q177.88-0.2 179.53 0.05L179.53 0.05Q181.03-0.15 182.38-0.7 183.73-1.25 184.78-2.1L184.78-2.1Q185.08-1.65 185.13-1.35L185.13-1.35Q184.83-0.9 184.11-0.3 183.38 0.3 182.53 0.88 181.68 1.45 180.88 1.85 180.08 2.25 179.68 2.3L179.68 2.3Q178.43 2.25 177.18 1.75 175.93 1.25 174.91 0.5 173.88-0.25 173.23-1.18 172.58-2.1 172.58-3L172.58-3Q172.58-4.2 172.91-6.03 173.23-7.85 173.83-10 174.43-12.15 175.23-14.5 176.03-16.85 176.98-19.15L176.98-19.15Z" opacity="1" transform="matrix(1,0,0,1,0,0)" fill="#ba3b0a" class="wordmark-text-0" data-fill-palette-color="primary" id="text-0"></path></svg></g></svg></g></svg></g></svg></g></svg></g><g></g></svg></g></svg></g></svg></g><defs></defs></svg><rect width="320" height="360" fill="none" stroke="none" visibility="hidden"></rect></g></svg></g></svg>